<svg width="14.907471" height="14.879974" viewBox="0 0 14.9075 14.88" fill="none" xmlns="http://www.w3.org/2000/svg" xmlns:xlink="http://www.w3.org/1999/xlink">
	<desc>
			Created with Pixso.
	</desc>
	<defs/>
	<path id="Vector" d="M7.45 3.62C5.34 3.62 3.63 5.32 3.63 7.44C3.63 9.55 5.34 11.25 7.45 11.25C9.57 11.25 11.27 9.55 11.27 7.44C11.27 5.32 9.57 3.62 7.45 3.62ZM7.45 9.92C6.08 9.92 4.97 8.8 4.97 7.44C4.97 6.07 6.08 4.95 7.45 4.95C8.82 4.95 9.93 6.07 9.93 7.44C9.93 8.8 8.82 9.92 7.45 9.92ZM12.32 3.46C12.32 3.96 11.92 4.35 11.43 4.35C10.93 4.35 10.54 3.96 10.54 3.46C10.54 2.97 10.94 2.57 11.43 2.57C11.92 2.57 12.32 2.97 12.32 3.46ZM14.85 4.37C14.79 3.18 14.52 2.12 13.65 1.25C12.77 0.38 11.72 0.11 10.52 0.05C9.29 -0.02 5.6 -0.02 4.37 0.05C3.18 0.1 2.13 0.38 1.25 1.25C0.38 2.12 0.11 3.17 0.05 4.36C-0.02 5.59 -0.02 9.27 0.05 10.5C0.1 11.7 0.38 12.75 1.25 13.62C2.13 14.49 3.18 14.76 4.37 14.82C5.6 14.89 9.29 14.89 10.52 14.82C11.72 14.77 12.77 14.49 13.65 13.62C14.52 12.75 14.79 11.7 14.85 10.5C14.92 9.27 14.92 5.6 14.85 4.37ZM13.26 11.82C13 12.47 12.5 12.97 11.84 13.24C10.86 13.62 8.53 13.53 7.45 13.53C6.37 13.53 4.03 13.62 3.06 13.24C2.41 12.98 1.9 12.48 1.64 11.82C1.25 10.84 1.34 8.52 1.34 7.44C1.34 6.35 1.25 4.03 1.64 3.05C1.9 2.4 2.4 1.9 3.06 1.63C4.04 1.25 6.37 1.34 7.45 1.34C8.53 1.34 10.87 1.25 11.84 1.63C12.5 1.89 13 2.39 13.26 3.05C13.65 4.03 13.56 6.35 13.56 7.44C13.56 8.52 13.65 10.84 13.26 11.82Z" fill="#000000" fill-opacity="1.000000" fill-rule="nonzero"/>
</svg>
