<svg width="11.919312" height="16.000000" viewBox="0 0 11.9193 16" fill="none" xmlns="http://www.w3.org/2000/svg" xmlns:xlink="http://www.w3.org/1999/xlink">
	<desc>
			Created with Pixso.
	</desc>
	<defs>
		<clipPath id="clip190_1618">
			<rect width="11.919281" height="16.000000" fill="white" fill-opacity="0"/>
		</clipPath>
	</defs>
	<rect width="11.919281" height="16.000000" fill="#FFFFFF" fill-opacity="0"/>
	<g clip-path="url(#clip190_1618)">
		<path d="M6.33 0.2C3.14 0.2 0 2.34 0 5.79C0 8 1.22 9.25 1.97 9.25C2.28 9.25 2.45 8.38 2.45 8.14C2.45 7.85 1.72 7.23 1.72 6.02C1.72 3.51 3.62 1.73 6.08 1.73C8.19 1.73 9.75 2.94 9.75 5.16C9.75 6.82 9.09 9.93 6.95 9.93C6.18 9.93 5.52 9.37 5.52 8.56C5.52 7.38 6.34 6.24 6.34 5.02C6.34 2.95 3.42 3.32 3.42 5.82C3.42 6.35 3.49 6.93 3.72 7.41C3.29 9.26 2.42 12.03 2.42 13.94C2.42 14.53 2.5 15.11 2.56 15.7C2.66 15.82 2.61 15.81 2.77 15.75C4.33 13.6 4.28 13.17 4.99 10.35C5.37 11.08 6.36 11.48 7.14 11.48C10.43 11.48 11.91 8.24 11.91 5.33C11.91 2.22 9.25 0.2 6.33 0.2Z" fill="#000000" fill-opacity="1.000000" fill-rule="nonzero"/>
	</g>
</svg>
