<svg width="15.892334" height="16.000000" viewBox="0 0 15.8923 16" fill="none" xmlns="http://www.w3.org/2000/svg" xmlns:xlink="http://www.w3.org/1999/xlink">
	<desc>
			Created with Pixso.
	</desc>
	<defs>
		<clipPath id="clip190_1614">
			<rect id="twitter-brands 1" width="15.892374" height="16.000000" fill="white" fill-opacity="0"/>
		</clipPath>
	</defs>
	<rect id="twitter-brands 1" width="15.892374" height="16.000000" fill="#FFFFFF" fill-opacity="0"/>
	<g clip-path="url(#clip190_1614)">
		<path id="Vector" d="M14.25 4.74C14.26 4.88 14.26 5.02 14.26 5.16C14.26 9.5 10.99 14.49 5 14.49C3.15 14.49 1.44 13.95 0 13.02C0.26 13.05 0.51 13.06 0.78 13.06C2.3 13.06 3.71 12.54 4.83 11.66C3.39 11.63 2.19 10.69 1.78 9.39C1.98 9.42 2.18 9.44 2.4 9.44C2.69 9.44 2.98 9.4 3.25 9.32C1.76 9.02 0.64 7.7 0.64 6.11L0.64 6.07C1.07 6.31 1.58 6.46 2.11 6.48C1.24 5.89 0.66 4.89 0.66 3.75C0.66 3.14 0.82 2.58 1.1 2.1C2.71 4.09 5.12 5.39 7.82 5.53C7.77 5.28 7.74 5.03 7.74 4.78C7.74 2.97 9.19 1.5 11 1.5C11.93 1.5 12.78 1.89 13.38 2.53C14.11 2.39 14.82 2.12 15.44 1.74C15.2 2.5 14.69 3.14 14.01 3.55C14.67 3.48 15.3 3.29 15.89 3.04C15.44 3.69 14.89 4.27 14.25 4.74Z" fill="#000000" fill-opacity="1.000000" fill-rule="nonzero"/>
	</g>
</svg>
